<?xml version="1.0" standalone="no"?>
<!DOCTYPE svg PUBLIC "-//W3C//DTD SVG 20010904//EN"
 "http://www.w3.org/TR/2001/REC-SVG-20010904/DTD/svg10.dtd">
<svg version="1.0" xmlns="http://www.w3.org/2000/svg"
 width="500.000000pt" height="500.000000pt" viewBox="0 0 500.000000 500.000000"
 preserveAspectRatio="xMidYMid meet">

<g transform="translate(0.000000,500.000000) scale(0.100000,-0.100000)"
fill="#000000" stroke="none">
<path d="M2320 4483 c0 -10 7 -27 16 -38 27 -36 54 -144 54 -219 0 -215 -122
-366 -327 -406 -117 -23 -231 13 -332 106 -53 48 -81 58 -81 29 0 -23 113
-118 179 -148 140 -66 322 -40 452 65 54 44 107 124 130 199 23 74 27 210 9
280 -20 74 -61 149 -82 149 -11 0 -18 -7 -18 -17z"/>
<path d="M2300 3633 c-144 -15 -354 -72 -513 -139 -82 -34 -107 -57 -107 -98
0 -24 41 -66 64 -66 12 0 62 14 111 30 203 69 432 115 644 130 150 11 171 20
171 76 0 23 -7 38 -26 53 -24 19 -39 21 -168 19 -77 0 -157 -3 -176 -5z"/>
<path d="M4225 3138 c-31 -18 -53 -49 -70 -97 -31 -90 -7 -199 52 -233 28 -17
35 -18 66 -5 102 43 131 235 47 319 -30 30 -62 35 -95 16z"/>
<path d="M3534 3119 c-48 -24 -72 -107 -54 -192 27 -131 132 -219 212 -176 26
14 58 84 58 130 0 89 -56 197 -121 230 -42 21 -64 23 -95 8z"/>
<path d="M4134 2418 c-72 -32 -93 -227 -36 -337 61 -117 157 -35 156 134 0
138 -56 231 -120 203z"/>
<path d="M4471 2384 c-66 -84 -47 -302 30 -341 49 -25 98 41 106 141 13 158
-72 282 -136 200z"/>
</g>
</svg>
